<svg id="Line" height="512" viewBox="0 0 64 64" width="512" xmlns="http://www.w3.org/2000/svg"><path d="m54.98145 18.35547a6.23673 6.23673 0 0 0 -2.11622-.127l-23.17423.12578a12.87854 12.87854 0 1 0 -23.89089 7.86914 33.41009 33.41009 0 0 0 -1.5882 6.14184c-.43017 3.4159-.09826 6.2389-.20221 11.09766.12134 5.03424-.06793 11.34876 6.31159 13.47559 2.0401.58252 4.62628.20489 5.86133-1.52936a11.68046 11.68046 0 0 1 3.04687-2.64935 3.61835 3.61835 0 0 1 2.42676.11523c3.28033 1.12622 6.55493-.71021 8.97168-2.28528a17.69386 17.69386 0 0 0 6.40407-7.33862c4.25531-1.85553 6.84473-3.541 13.36444-7.923.084-.05469.99415-.67774 7.07325-5.72754a6.32736 6.32736 0 0 0 -2.48824-11.24509zm-38.10059-9.54688a10.89262 10.89262 0 0 1 10.87988 10.88086c-.59784 14.43415-21.16534 14.4289-21.76074-.00012a10.89281 10.89281 0 0 1 10.88086-10.88074zm39.30176 19.26075c-5.915 4.91308-6.85059 5.56445-6.88867 5.58984-5.46058 3.67059-8.11347 5.4154-11.30811 6.956a20.68162 20.68162 0 0 0 .71533-5.35931 1.00012 1.00012 0 0 0 -2-.01367c-.042 5.98828-2.39355 10.46484-7.16113 13.66992-2.01074 1.25781-4.2832 2.68262-6.62305 2.21777-1.41778-.30737-2.62658-.91491-4.4209-.23144a12.72265 12.72265 0 0 0 -3.86621 3.25c-.88476 1.14258-2.21863 1.20532-3.74707.87115-4.67383-1.53521-4.76758-6.28033-4.8584-10.8692.06757-4.62537-.22827-8.24878.16291-11.47266a31.42071 31.42071 0 0 1 1.052-4.47662 12.85023 12.85023 0 0 0 22.48773-7.847l23.1499-.12561a4.52619 4.52619 0 0 1 1.65827.07708 4.32587 4.32587 0 0 1 1.6474 7.76375z"/><path d="m10.88086 20.68945h1.10107a4.96677 4.96677 0 0 0 .73163 1.75226l-.7829.7829a.99989.99989 0 1 0 1.41407 1.41406l.78259-.78259a4.968 4.968 0 0 0 1.75354.7323v1.10107a1.00019 1.00019 0 0 0 2-.00006v-1.101a4.96828 4.96828 0 0 0 1.75293-.73193l.78223.78222a1.00008 1.00008 0 0 0 1.414-1.41412l-.78217-.78217a4.9683 4.9683 0 0 0 .73194-1.75293h1.10107a1.00019 1.00019 0 0 0 -.00006-2h-1.101a4.9684 4.9684 0 0 0 -.7323-1.75354l.78259-.78259a1.00009 1.00009 0 0 0 -1.41413-1.414l-.78283.78284a4.9664 4.9664 0 0 0 -1.75226-.73163v-1.10109a1 1 0 0 0 -2 0v1.10108a4.96828 4.96828 0 0 0 -1.75293.73193l-.7832-.7832a1.00006 1.00006 0 0 0 -1.414 1.41406l.78314.7832a4.96845 4.96845 0 0 0 -.73194 1.75293h-1.10108a1.00019 1.00019 0 0 0 0 2zm6-4a3.00019 3.00019 0 0 1 -.00006 6 3.00019 3.00019 0 0 1 .00006-6z"/></svg>